<?xml version="1.0" encoding="UTF-8" standalone="no"?>
<!DOCTYPE svg PUBLIC "-//W3C//DTD SVG 1.1//EN" "http://www.w3.org/Graphics/SVG/1.1/DTD/svg11.dtd">
<svg xmlns="http://www.w3.org/2000/svg" xmlns:xlink="http://www.w3.org/1999/xlink" version="1.1" width="177.4001pt" height="47.588014pt" viewBox="0 0 177.4001 47.588014">
<g enable-background="new">
<path transform="matrix(1,0,0,-1,-82.2379,769.098)" stroke-width=".4" stroke-linecap="butt" stroke-linejoin="round" fill="none" stroke="#000000" d="M 90.9379 764.398 C 90.9379 766.607 89.147 768.398 86.9379 768.398 C 84.7288 768.398 82.9379 766.607 82.9379 764.398 C 82.9379 762.189 84.7288 760.398 86.9379 760.398 C 89.147 760.398 90.9379 762.189 90.9379 764.398 "/>
<path transform="matrix(1,0,0,-1,-82.2379,769.098)" stroke-width=".4" stroke-linecap="butt" stroke-linejoin="round" fill="none" stroke="#000000" d="M 114.938 764.398 C 114.938 766.607 113.147 768.398 110.938 768.398 C 108.729 768.398 106.938 766.607 106.938 764.398 C 106.938 762.189 108.729 760.398 110.938 760.398 C 113.147 760.398 114.938 762.189 114.938 764.398 "/>
<path transform="matrix(1,0,0,-1,-82.2379,769.098)" stroke-width=".4" stroke-linecap="butt" stroke-linejoin="round" fill="none" stroke="#000000" d="M 90.9379 740.398 C 90.9379 742.607 89.147 744.398 86.9379 744.398 C 84.7288 744.398 82.9379 742.607 82.9379 740.398 C 82.9379 738.189 84.7288 736.398 86.9379 736.398 C 89.147 736.398 90.9379 738.189 90.9379 740.398 "/>
<path transform="matrix(1,0,0,-1,-82.2379,769.098)" stroke-width=".4" stroke-linecap="butt" stroke-linejoin="round" fill="none" stroke="#000000" d="M 86.8451 760.399 L 86.8451 744.397 "/>
<path transform="matrix(1,0,0,-1,-82.2379,769.098)" stroke-width=".4" stroke-linecap="butt" stroke-linejoin="round" fill="none" stroke="#000000" d="M 90.9375 764.454 L 106.938 764.454 "/>
<path transform="matrix(1,0,0,-1,-82.2379,769.098)" stroke-width=".4" stroke-linecap="butt" stroke-linejoin="round" fill="none" stroke="#000000" d="M 89.6703 743.319 L 108.072 761.608 "/>
<path transform="matrix(1,0,0,-1,-82.2379,769.098)" stroke-width=".4" stroke-linecap="butt" stroke-linejoin="round" fill="none" stroke="#000000" d="M 138.938 764.398 C 138.938 766.607 137.147 768.398 134.938 768.398 C 132.729 768.398 130.938 766.607 130.938 764.398 C 130.938 762.189 132.729 760.398 134.938 760.398 C 137.147 760.398 138.938 762.189 138.938 764.398 "/>
<path transform="matrix(1,0,0,-1,-82.2379,769.098)" stroke-width=".4" stroke-linecap="butt" stroke-linejoin="round" fill="none" stroke="#000000" d="M 162.938 764.398 C 162.938 766.607 161.147 768.398 158.938 768.398 C 156.729 768.398 154.938 766.607 154.938 764.398 C 154.938 762.189 156.729 760.398 158.938 760.398 C 161.147 760.398 162.938 762.189 162.938 764.398 "/>
<path transform="matrix(1,0,0,-1,-82.2379,769.098)" stroke-width=".4" stroke-linecap="butt" stroke-linejoin="round" fill="none" stroke="#000000" d="M 138.938 740.398 C 138.938 742.607 137.147 744.398 134.938 744.398 C 132.729 744.398 130.938 742.607 130.938 740.398 C 130.938 738.189 132.729 736.398 134.938 736.398 C 137.147 736.398 138.938 738.189 138.938 740.398 "/>
<path transform="matrix(1,0,0,-1,-82.2379,769.098)" stroke-width=".4" stroke-linecap="butt" stroke-linejoin="round" fill="none" stroke="#000000" d="M 134.845 760.399 L 134.845 744.397 "/>
<path transform="matrix(1,0,0,-1,-82.2379,769.098)" stroke-width=".4" stroke-linecap="butt" stroke-linejoin="round" fill="none" stroke="#000000" d="M 138.938 764.454 L 154.938 764.454 "/>
<path transform="matrix(1,0,0,-1,-82.2379,769.098)" stroke-width=".4" stroke-linecap="butt" stroke-linejoin="round" fill="none" stroke="#000000" d="M 186.938 764.398 C 186.938 766.607 185.147 768.398 182.938 768.398 C 180.729 768.398 178.938 766.607 178.938 764.398 C 178.938 762.189 180.729 760.398 182.938 760.398 C 185.147 760.398 186.938 762.189 186.938 764.398 "/>
<path transform="matrix(1,0,0,-1,-82.2379,769.098)" stroke-width=".4" stroke-linecap="butt" stroke-linejoin="round" fill="none" stroke="#000000" d="M 210.938 764.398 C 210.938 766.607 209.147 768.398 206.938 768.398 C 204.729 768.398 202.938 766.607 202.938 764.398 C 202.938 762.189 204.729 760.398 206.938 760.398 C 209.147 760.398 210.938 762.189 210.938 764.398 "/>
<path transform="matrix(1,0,0,-1,-82.2379,769.098)" stroke-width=".4" stroke-linecap="butt" stroke-linejoin="round" fill="none" stroke="#000000" d="M 186.938 740.398 C 186.938 742.607 185.147 744.398 182.938 744.398 C 180.729 744.398 178.938 742.607 178.938 740.398 C 178.938 738.189 180.729 736.398 182.938 736.398 C 185.147 736.398 186.938 738.189 186.938 740.398 "/>
<path transform="matrix(1,0,0,-1,-82.2379,769.098)" stroke-width=".4" stroke-linecap="butt" stroke-linejoin="round" fill="none" stroke="#000000" d="M 186.938 764.454 L 202.938 764.454 "/>
<path transform="matrix(1,0,0,-1,-82.2379,769.098)" stroke-width=".4" stroke-linecap="butt" stroke-linejoin="round" fill="none" stroke="#000000" d="M 234.938 764.398 C 234.938 766.607 233.147 768.398 230.938 768.398 C 228.729 768.398 226.938 766.607 226.938 764.398 C 226.938 762.189 228.729 760.398 230.938 760.398 C 233.147 760.398 234.938 762.189 234.938 764.398 "/>
<path transform="matrix(1,0,0,-1,-82.2379,769.098)" stroke-width=".4" stroke-linecap="butt" stroke-linejoin="round" fill="none" stroke="#000000" d="M 258.938 764.398 C 258.938 766.607 257.147 768.398 254.938 768.398 C 252.729 768.398 250.938 766.607 250.938 764.398 C 250.938 762.189 252.729 760.398 254.938 760.398 C 257.147 760.398 258.938 762.189 258.938 764.398 "/>
<path transform="matrix(1,0,0,-1,-82.2379,769.098)" stroke-width=".4" stroke-linecap="butt" stroke-linejoin="round" fill="none" stroke="#000000" d="M 234.938 740.398 C 234.938 742.607 233.147 744.398 230.938 744.398 C 228.729 744.398 226.938 742.607 226.938 740.398 C 226.938 738.189 228.729 736.398 230.938 736.398 C 233.147 736.398 234.938 738.189 234.938 740.398 "/>
<clipPath id="cp0">
<path transform="matrix(1,0,0,-1,9.7621,46.588014)" d="M -1 -1 L 13.302 -1 L 13.302 9.302 L -1 9.302 Z "/>
</clipPath>
<g clip-path="url(#cp0)">
<text xml:space="preserve" transform="matrix(1 0 -0 1 9.7621 830.286)" font-size="9.9626" font-family="CMMI10" font-style="italic"><tspan y="-785.192" x="0">G</tspan></text>
<text xml:space="preserve" transform="matrix(1 0 -0 1 9.7621 830.286)" font-size="6.9738" font-family="CMR7"><tspan y="-783.698" x="7.833">1</tspan></text>
</g>
<clipPath id="cp1">
<path transform="matrix(1,0,0,-1,57.7621,46.588014)" d="M -1 -1 L 13.302 -1 L 13.302 9.302 L -1 9.302 Z "/>
</clipPath>
<g clip-path="url(#cp1)">
<text xml:space="preserve" transform="matrix(1 0 -0 1 57.7621 830.286)" font-size="9.9626" font-family="CMMI10" font-style="italic"><tspan y="-785.192" x="0">G</tspan></text>
<text xml:space="preserve" transform="matrix(1 0 -0 1 57.7621 830.286)" font-size="6.9738" font-family="CMR7"><tspan y="-783.698" x="7.833">2</tspan></text>
</g>
<clipPath id="cp2">
<path transform="matrix(1,0,0,-1,105.7621,46.588014)" d="M -1 -1 L 13.302 -1 L 13.302 9.302 L -1 9.302 Z "/>
</clipPath>
<g clip-path="url(#cp2)">
<text xml:space="preserve" transform="matrix(1 0 -0 1 105.7621 830.286)" font-size="9.9626" font-family="CMMI10" font-style="italic"><tspan y="-785.192" x="0">G</tspan></text>
<text xml:space="preserve" transform="matrix(1 0 -0 1 105.7621 830.286)" font-size="6.9738" font-family="CMR7"><tspan y="-783.698" x="7.833">3</tspan></text>
</g>
<clipPath id="cp3">
<path transform="matrix(1,0,0,-1,153.7621,46.588014)" d="M -1 -1 L 13.302 -1 L 13.302 9.302 L -1 9.302 Z "/>
</clipPath>
<g clip-path="url(#cp3)">
<text xml:space="preserve" transform="matrix(1 0 -0 1 153.7621 830.286)" font-size="9.9626" font-family="CMMI10" font-style="italic"><tspan y="-785.192" x="0">G</tspan></text>
<text xml:space="preserve" transform="matrix(1 0 -0 1 153.7621 830.286)" font-size="6.9738" font-family="CMR7"><tspan y="-783.698" x="7.833">4</tspan></text>
</g>
</g>
</svg>
